<svg xmlns="http://www.w3.org/2000/svg" width="60" height="60" viewBox="0 0 60 60"><defs><style>.a{fill:#cc0352;}</style></defs><path class="a" d="M53.535,0H6.465A6.472,6.472,0,0,0,0,6.465V40.946a6.472,6.472,0,0,0,6.465,6.465H21.383l4.94,9.881A4.274,4.274,0,0,0,30,60a4.274,4.274,0,0,0,3.677-2.709l4.941-9.881H53.535A6.472,6.472,0,0,0,60,40.946V6.465A6.472,6.472,0,0,0,53.535,0Zm2.949,40.946a2.952,2.952,0,0,1-2.949,2.949h-16a1.758,1.758,0,0,0-1.572.972L30.533,55.719a2.138,2.138,0,0,1-.533.735,2.138,2.138,0,0,1-.533-.735L24.041,44.867a1.757,1.757,0,0,0-1.572-.972h-16a2.952,2.952,0,0,1-2.949-2.949V6.465A2.953,2.953,0,0,1,6.465,3.516h47.07a2.952,2.952,0,0,1,2.949,2.949Zm0,0"/></svg>