<svg xmlns="http://www.w3.org/2000/svg" width="299.153" height="61.111" viewBox="0 0 299.153 61.111"><defs><style>.a{fill:#fef2f5;}</style></defs><path class="a" d="M205.954,107.681a5.727,5.727,0,0,1-2.236-.431,5.093,5.093,0,0,1-1.8-1.259,5.94,5.94,0,0,1-1.2-2.037,8.143,8.143,0,0,1-.44-2.778,7.532,7.532,0,0,1,.463-2.778A6.13,6.13,0,0,1,202,96.361a5.255,5.255,0,0,1,1.852-1.25,5.792,5.792,0,0,1,2.171-.421,8.278,8.278,0,0,1,1.278.093,7.469,7.469,0,0,1,1,.222c.287.093.532.181.736.269a3.44,3.44,0,0,1,.463.245l-.4,1.06a7,7,0,0,0-1.139-.532,5.625,5.625,0,0,0-3.755.134,4.009,4.009,0,0,0-1.463,1.116,4.857,4.857,0,0,0-.889,1.7,7.579,7.579,0,0,0-.3,2.194,7.75,7.75,0,0,0,.3,2.231,4.8,4.8,0,0,0,.87,1.7,3.9,3.9,0,0,0,1.389,1.079,4.629,4.629,0,0,0,1.912.375,7.5,7.5,0,0,0,1.981-.222,5.9,5.9,0,0,0,1.213-.463l.343,1.042a1.889,1.889,0,0,1-.431.2,7.826,7.826,0,0,1-.773.245,8.033,8.033,0,0,1-1.079.2A10.131,10.131,0,0,1,205.954,107.681Z" transform="translate(-107.556 -50.852)"/><path class="a" d="M226.728,106.493a5.847,5.847,0,0,1,.352-2.13,4.63,4.63,0,0,1,.926-1.519,3.574,3.574,0,0,1,1.292-.9,3.921,3.921,0,0,1,1.5-.3,3.5,3.5,0,0,1,2.718,1.111,4.948,4.948,0,0,1,1.019,3.431v.287a.841.841,0,0,1-.028.269h-6.537a4.116,4.116,0,0,0,.843,2.625,3.134,3.134,0,0,0,2.514.926,5.236,5.236,0,0,0,1.509-.176,6.82,6.82,0,0,0,.81-.306l.213,1a4.856,4.856,0,0,1-.926.343,6.018,6.018,0,0,1-1.625.194,5.463,5.463,0,0,1-2.079-.356,3.727,3.727,0,0,1-1.421-1.009,3.954,3.954,0,0,1-.806-1.532A7,7,0,0,1,226.728,106.493Zm6.606-.736a3.7,3.7,0,0,0-.685-2.264,2.213,2.213,0,0,0-1.852-.806,2.454,2.454,0,0,0-1.125.25,2.889,2.889,0,0,0-.861.671,3.185,3.185,0,0,0-.569.977,3.936,3.936,0,0,0-.241,1.167Z" transform="translate(-121.761 -54.586)"/><path class="a" d="M252.274,102.223c.347-.1.815-.2,1.389-.324a10.929,10.929,0,0,1,2.153-.181,4.556,4.556,0,0,1,1.769.306,2.7,2.7,0,0,1,1.134.875,3.537,3.537,0,0,1,.6,1.352A7.87,7.87,0,0,1,259.5,106v5.19h-1.157v-4.815a8.613,8.613,0,0,0-.134-1.671,2.7,2.7,0,0,0-.463-1.111,1.727,1.727,0,0,0-.824-.62,3.764,3.764,0,0,0-1.282-.19,9.8,9.8,0,0,0-1.431.093,4.212,4.212,0,0,0-.782.162v8.153H252.26Z" transform="translate(-135.473 -54.625)"/><path class="a" d="M278.486,98.694h3.7v.986h-3.7v4.94a5.15,5.15,0,0,0,.134,1.287,1.75,1.75,0,0,0,.389.759,1.213,1.213,0,0,0,.611.361,3.2,3.2,0,0,0,.787.088,3.343,3.343,0,0,0,1.185-.171,5.5,5.5,0,0,0,.7-.31l.287.968a4.676,4.676,0,0,1-2.245.574,4.083,4.083,0,0,1-1.444-.222,2.083,2.083,0,0,1-.926-.685,2.777,2.777,0,0,1-.5-1.139,7.836,7.836,0,0,1-.144-1.616V95.968l1.167-.218Z" transform="translate(-148.936 -51.421)"/><path class="a" d="M298.731,101.716a6.213,6.213,0,0,1,1.083.093,3.385,3.385,0,0,1,.713.181l-.236,1a2.849,2.849,0,0,0-.583-.153,6.482,6.482,0,0,0-1.167-.069,5.324,5.324,0,0,0-1.213.111,3.4,3.4,0,0,0-.6.176V111.2H295.56v-8.889a9.131,9.131,0,0,1,1.241-.4,7.616,7.616,0,0,1,1.931-.19Z" transform="translate(-158.727 -54.624)"/><path class="a" d="M320.468,106.516a6.017,6.017,0,0,1-.315,1.991,4.486,4.486,0,0,1-.88,1.528,3.977,3.977,0,0,1-1.338.977,4.31,4.31,0,0,1-3.412,0,3.889,3.889,0,0,1-1.338-.977,4.342,4.342,0,0,1-.88-1.528,6.482,6.482,0,0,1,0-3.986,4.491,4.491,0,0,1,.88-1.532,3.926,3.926,0,0,1,1.338-.991,4.366,4.366,0,0,1,3.412,0,4.019,4.019,0,0,1,1.338.991,4.629,4.629,0,0,1,.88,1.532A6.055,6.055,0,0,1,320.468,106.516Zm-1.241,0a4.375,4.375,0,0,0-.81-2.778,2.847,2.847,0,0,0-4.38,0,4.4,4.4,0,0,0-.81,2.778,4.343,4.343,0,0,0,.81,2.778,2.857,2.857,0,0,0,4.38,0A4.315,4.315,0,0,0,319.227,106.516Z" transform="translate(-167.551 -54.59)"/><path class="a" d="M355.4,108a5.232,5.232,0,0,1-2.111-.38,3.611,3.611,0,0,1-1.412-1.042,4.116,4.116,0,0,1-.778-1.551,7.23,7.23,0,0,1-.245-1.912V95.29h1.222v7.667a5.732,5.732,0,0,0,.241,1.769,3.454,3.454,0,0,0,.676,1.231,2.68,2.68,0,0,0,1.042.718,4.13,4.13,0,0,0,2.727,0,2.681,2.681,0,0,0,1.042-.718,3.454,3.454,0,0,0,.676-1.231,5.731,5.731,0,0,0,.241-1.769V95.29h1.222v7.829a7.43,7.43,0,0,1-.241,1.912,4.2,4.2,0,0,1-.782,1.551,3.611,3.611,0,0,1-1.389,1.042A5.223,5.223,0,0,1,355.4,108Z" transform="translate(-188.419 -51.174)"/><path class="a" d="M380.274,102.223c.347-.1.815-.2,1.389-.324a10.9,10.9,0,0,1,2.153-.181,4.556,4.556,0,0,1,1.769.306,2.727,2.727,0,0,1,1.134.875,3.611,3.611,0,0,1,.6,1.352A8.162,8.162,0,0,1,387.5,106v5.19h-1.153v-4.815a8.613,8.613,0,0,0-.134-1.671,2.778,2.778,0,0,0-.463-1.111,1.75,1.75,0,0,0-.824-.62,3.778,3.778,0,0,0-1.287-.19,9.722,9.722,0,0,0-1.426.093,4.127,4.127,0,0,0-.782.162v8.153H380.26Z" transform="translate(-204.214 -54.625)"/><path class="a" d="M406.568,95.019a.856.856,0,0,1-.255.657.889.889,0,0,1-1.218,0,.972.972,0,0,1,0-1.31.88.88,0,0,1,1.218,0A.856.856,0,0,1,406.568,95.019Zm-.264,12.088h-1.171V97.82H406.3Z" transform="translate(-217.415 -50.547)"/><path class="a" d="M419.2,110.138c.255-.514.509-1.106.773-1.769s.523-1.352.769-2.065.463-1.431.685-2.157.384-1.389.528-2.037h1.171q-.329,1.278-.727,2.514c-.264.829-.542,1.634-.838,2.426s-.6,1.551-.926,2.278-.63,1.421-.926,2.069h-1.088q-.472-.972-.926-2.069c-.3-.731-.616-1.486-.926-2.278s-.579-1.6-.843-2.426-.5-1.662-.722-2.514h1.241c.144.634.319,1.315.528,2.037s.463,1.444.685,2.157.5,1.389.769,2.065S418.945,109.624,419.2,110.138Z" transform="translate(-222.978 -54.837)"/><path class="a" d="M438.278,106.493a5.847,5.847,0,0,1,.352-2.13,4.723,4.723,0,0,1,.926-1.519,3.63,3.63,0,0,1,1.3-.9,3.889,3.889,0,0,1,1.5-.3,3.5,3.5,0,0,1,2.718,1.111,4.971,4.971,0,0,1,1.014,3.431v.556h-6.546a4.088,4.088,0,0,0,.843,2.625,3.134,3.134,0,0,0,2.514.926,5.236,5.236,0,0,0,1.509-.176,6.377,6.377,0,0,0,.806-.306l.218,1a4.856,4.856,0,0,1-.926.343,6.018,6.018,0,0,1-1.625.194,5.473,5.473,0,0,1-2.083-.356,3.745,3.745,0,0,1-1.417-1.009,3.963,3.963,0,0,1-.81-1.532A7.175,7.175,0,0,1,438.278,106.493Zm6.588-.736a3.7,3.7,0,0,0-.681-2.264,2.213,2.213,0,0,0-1.852-.806,2.449,2.449,0,0,0-1.12.25,2.889,2.889,0,0,0-.861.671,3.1,3.1,0,0,0-.574.981,3.94,3.94,0,0,0-.245,1.167Z" transform="translate(-235.371 -54.586)"/><path class="a" d="M467,101.716a6.213,6.213,0,0,1,1.083.093,3.384,3.384,0,0,1,.713.181l-.236,1a2.849,2.849,0,0,0-.583-.153,6.482,6.482,0,0,0-1.157-.083,5.324,5.324,0,0,0-1.213.111,3.4,3.4,0,0,0-.6.176v8.139H463.84v-8.875a9.128,9.128,0,0,1,1.241-.4,7.616,7.616,0,0,1,1.921-.19Z" transform="translate(-249.099 -54.624)"/><path class="a" d="M482.429,110.293a3.648,3.648,0,0,0,1.662-.333,1.157,1.157,0,0,0,.657-1.12,1.62,1.62,0,0,0-.12-.648,1.241,1.241,0,0,0-.384-.463,3.486,3.486,0,0,0-.708-.417l-1.088-.463a8.783,8.783,0,0,1-.986-.463,3.876,3.876,0,0,1-.829-.519,2.361,2.361,0,0,1-.574-.708,2.162,2.162,0,0,1-.213-1,2.254,2.254,0,0,1,.852-1.852,3.579,3.579,0,0,1,2.343-.7,6.186,6.186,0,0,1,1.569.162,5,5,0,0,1,.875.287l-.273,1.042a6.317,6.317,0,0,0-.727-.292,4.894,4.894,0,0,0-1.5-.176,3.536,3.536,0,0,0-.745.079,1.94,1.94,0,0,0-.616.255,1.278,1.278,0,0,0-.431.431,1.162,1.162,0,0,0-.162.639,1.352,1.352,0,0,0,.144.648,1.389,1.389,0,0,0,.421.463,3.566,3.566,0,0,0,.681.384c.269.12.579.25.926.394s.7.292,1.032.463a3.782,3.782,0,0,1,.87.537,2.491,2.491,0,0,1,.611.755,2.315,2.315,0,0,1,.231,1.1,2.167,2.167,0,0,1-.926,1.907,4.514,4.514,0,0,1-2.579.644,6.593,6.593,0,0,1-1.852-.2,7.929,7.929,0,0,1-.861-.315l.306-1.06a2,2,0,0,0,.231.116,4.357,4.357,0,0,0,.486.181,5.863,5.863,0,0,0,.727.171A6.084,6.084,0,0,0,482.429,110.293Z" transform="translate(-257.633 -54.561)"/><path class="a" d="M502.258,95.019a.857.857,0,0,1-.255.657.889.889,0,0,1-1.218,0,.972.972,0,0,1,0-1.31.88.88,0,0,1,1.218,0,.856.856,0,0,1,.255.653Zm-.268,12.088h-1.171V97.82h1.171Z" transform="translate(-268.804 -50.547)"/><path class="a" d="M514.45,98.694h3.7v.986h-3.7v4.94a4.935,4.935,0,0,0,.134,1.287,1.745,1.745,0,0,0,.384.759,1.213,1.213,0,0,0,.611.361,3.265,3.265,0,0,0,.792.088,3.361,3.361,0,0,0,1.185-.171,5.4,5.4,0,0,0,.7-.31l.287.968a4.369,4.369,0,0,1-.88.37,4.467,4.467,0,0,1-1.389.2,4.083,4.083,0,0,1-1.444-.222,2.139,2.139,0,0,1-.926-.685,2.778,2.778,0,0,1-.491-1.139,7.843,7.843,0,0,1-.144-1.616V95.968l1.167-.218Z" transform="translate(-275.644 -51.421)"/><path class="a" d="M533.589,96.564a4.084,4.084,0,0,1,1.556.259,2.686,2.686,0,0,1,1.032.718,2.819,2.819,0,0,1,.574,1.088,4.9,4.9,0,0,1,.181,1.389v5.829a5.086,5.086,0,0,1-.523.116l-.787.134c-.3.051-.634.088-1,.116s-.736.046-1.12.046a5.213,5.213,0,0,1-1.356-.162,3.019,3.019,0,0,1-1.079-.509,2.453,2.453,0,0,1-.718-.9,3.133,3.133,0,0,1-.259-1.338,2.717,2.717,0,0,1,.287-1.292,2.407,2.407,0,0,1,.81-.889,3.551,3.551,0,0,1,1.236-.514,7.217,7.217,0,0,1,1.565-.162q.25,0,.528.028t.542.069c.171.032.319.06.463.093a1.343,1.343,0,0,1,.264.079v-.574a5.655,5.655,0,0,0-.074-.926,2.047,2.047,0,0,0-.315-.829,1.778,1.778,0,0,0-.681-.593,2.574,2.574,0,0,0-1.157-.222,5.907,5.907,0,0,0-1.528.144c-.333.093-.579.171-.736.231l-.162-1.023a4.236,4.236,0,0,1,.926-.269A8.093,8.093,0,0,1,533.589,96.564Zm.111,8.653q.681,0,1.194-.042a8.083,8.083,0,0,0,.87-.12v-3.269a4.077,4.077,0,0,0-.63-.185,5.291,5.291,0,0,0-1.185-.1,6.778,6.778,0,0,0-.9.065,2.565,2.565,0,0,0-.861.269,1.82,1.82,0,0,0-.648.565,1.648,1.648,0,0,0-.25.954,2.014,2.014,0,0,0,.171.88,1.39,1.39,0,0,0,.463.574,2.181,2.181,0,0,0,.755.315,4.7,4.7,0,0,0,1.019.1Zm2.657-12.12-3.069,2.5-.593-.681,2.838-2.731Z" transform="translate(-284.677 -49.504)"/><path class="a" d="M557.572,101.716a6.213,6.213,0,0,1,1.083.093,3.383,3.383,0,0,1,.713.181l-.236,1a2.847,2.847,0,0,0-.583-.153,6.481,6.481,0,0,0-1.157-.083,5.325,5.325,0,0,0-1.213.111,3.4,3.4,0,0,0-.6.176v8.139H554.41v-8.875a9.129,9.129,0,0,1,1.241-.4A7.616,7.616,0,0,1,557.572,101.716Z" transform="translate(-297.739 -54.624)"/><path class="a" d="M573.122,95.018a.87.87,0,0,1-.25.657.9.9,0,0,1-1.222,0,.982.982,0,0,1,0-1.31.884.884,0,0,1,1.222,0A.871.871,0,0,1,573.122,95.018Zm-.268,12.088h-1.176V97.819h1.167Z" transform="translate(-306.862 -50.546)"/><path class="a" d="M591.588,106.516a6.017,6.017,0,0,1-.315,1.991,4.342,4.342,0,0,1-.88,1.528,3.935,3.935,0,0,1-1.338.977,4.31,4.31,0,0,1-3.412,0,3.977,3.977,0,0,1-1.338-.977,4.41,4.41,0,0,1-.88-1.528,6.482,6.482,0,0,1,0-3.986,4.57,4.57,0,0,1,.88-1.532,4.019,4.019,0,0,1,1.338-.991,4.366,4.366,0,0,1,3.412,0,3.972,3.972,0,0,1,1.338.991,4.491,4.491,0,0,1,.88,1.532A6.055,6.055,0,0,1,591.588,106.516Zm-1.241,0a4.4,4.4,0,0,0-.806-2.778,2.847,2.847,0,0,0-4.38,0,4.376,4.376,0,0,0-.81,2.778,4.315,4.315,0,0,0,.81,2.778,2.856,2.856,0,0,0,4.38,0A4.342,4.342,0,0,0,590.347,106.516Z" transform="translate(-313.153 -54.59)"/><path class="a" d="M165.328,37.849a11.111,11.111,0,0,1-4.167-.7,7.648,7.648,0,0,1-2.894-1.968,7.977,7.977,0,0,1-1.7-2.977A12.454,12.454,0,0,1,156,28.409V13.594h4.352V28a9.287,9.287,0,0,0,.356,2.778,4.852,4.852,0,0,0,1.028,1.852,4.1,4.1,0,0,0,1.593,1.056,5.75,5.75,0,0,0,2.037.343,5.944,5.944,0,0,0,2.056-.343,4.116,4.116,0,0,0,1.593-1.06,4.787,4.787,0,0,0,1.023-1.852,9.259,9.259,0,0,0,.361-2.778V13.58h4.352V28.395a12.037,12.037,0,0,1-.565,3.769,8.264,8.264,0,0,1-1.713,2.977,7.648,7.648,0,0,1-2.931,1.968A11.375,11.375,0,0,1,165.328,37.849Z" transform="translate(-83.778 -7.293)"/><path class="a" d="M208,26.294a27.876,27.876,0,0,1,3.116-.648,26.575,26.575,0,0,1,4.25-.31,9.792,9.792,0,0,1,3.662.6,5.778,5.778,0,0,1,2.347,1.681,6.347,6.347,0,0,1,1.231,2.6,14.5,14.5,0,0,1,.361,3.338V43.622h-4.144V34.206a13.629,13.629,0,0,0-.19-2.449,4.278,4.278,0,0,0-.616-1.644,2.477,2.477,0,0,0-1.162-.926,4.907,4.907,0,0,0-1.819-.306,14.625,14.625,0,0,0-1.644.1c-.569.069-.991.13-1.268.171V43.622H208Z" transform="translate(-111.704 -13.604)"/><path class="a" d="M255.3,11.849a2.389,2.389,0,0,1-.755,1.852,2.56,2.56,0,0,1-1.782.685,2.6,2.6,0,0,1-1.815-.685,2.389,2.389,0,0,1-.755-1.852,2.435,2.435,0,0,1,.755-1.884,2.62,2.62,0,0,1,1.815-.685,2.579,2.579,0,0,1,1.782.685,2.435,2.435,0,0,1,.755,1.884ZM254.84,35H250.7V17.09h4.144Z" transform="translate(-134.363 -4.983)"/><path class="a" d="M278.642,13.06q5.139,0,7.87,1.884a6.489,6.489,0,0,1,2.722,5.75q0,4.833-4.759,6.546.648.787,1.472,1.917t1.676,2.449c.56.87,1.1,1.8,1.634,2.722a30.339,30.339,0,0,1,1.389,2.722h-4.81q-.653-1.231-1.389-2.481t-1.523-2.431c-.514-.787-1.023-1.532-1.523-2.227s-.972-1.319-1.389-1.852c-.324,0-.6.032-.824.032h-2.741v8.94H272.1V13.643a22.485,22.485,0,0,1,3.356-.463C276.642,13.1,277.706,13.06,278.642,13.06Zm.31,3.731c-.926,0-1.759.037-2.537.1v7.676H278.3a20.259,20.259,0,0,0,2.778-.171,5.778,5.778,0,0,0,2-.62,3.009,3.009,0,0,0,1.218-1.2,3.973,3.973,0,0,0,.407-1.917,3.81,3.81,0,0,0-.407-1.852,3.074,3.074,0,0,0-1.185-1.2,5.6,5.6,0,0,0-1.829-.634A13.425,13.425,0,0,0,278.952,16.791Z" transform="translate(-146.128 -7.014)"/><path class="a" d="M319.45,37.311V13.58h15.241v3.662H323.765V23.1h9.722v3.6h-9.722V33.64H335.51V37.3Z" transform="translate(-171.557 -7.293)"/><path class="a" d="M382.955,25.168A13.759,13.759,0,0,1,382,30.529a10.185,10.185,0,0,1-2.727,3.819,11.259,11.259,0,0,1-4.245,2.259,19.13,19.13,0,0,1-5.5.736c-.958,0-2.046-.037-3.241-.116a21.819,21.819,0,0,1-3.458-.5V13.663a20.472,20.472,0,0,1,3.491-.463c1.236-.069,2.315-.1,3.292-.1a19.861,19.861,0,0,1,5.444.7,11.241,11.241,0,0,1,4.227,2.194,9.908,9.908,0,0,1,2.727,3.769A13.949,13.949,0,0,1,382.955,25.168ZM367.131,33.5c.25.023.583.042.991.051s.972,0,1.681,0q4.347,0,6.482-2.208a8.548,8.548,0,0,0,2.139-6.185,8.558,8.558,0,0,0-2.088-6.2q-2.088-2.157-6.481-2.157a26.146,26.146,0,0,0-2.741.1Z" transform="translate(-194.853 -7.034)"/><path class="a" d="M414.29,37.311V13.58h15.241v3.662H418.6V23.1h9.722v3.6H418.6V33.64h11.755V37.3Z" transform="translate(-222.489 -7.293)"/><path class="a" d="M473.631,37.311q-1.162-1.954-2.6-4.194t-2.977-4.528q-1.542-2.269-3.134-4.417t-3.032-3.852V37.311H457.64V13.58h3.528q1.389,1.44,2.944,3.407t3.167,4.093c1.065,1.417,2.088,2.838,3.083,4.264s1.88,2.755,2.653,3.991V13.594H477.3V37.311Z" transform="translate(-245.77 -7.293)"/><path class="a" d="M524.66,13.58v3.731h-7.3v20h-4.347v-20h-7.3V13.58Z" transform="translate(-271.59 -7.293)"/><path class="a" d="M570.664,24.788a14.736,14.736,0,0,1-.926,5.38,11.149,11.149,0,0,1-2.463,3.884,10.185,10.185,0,0,1-3.648,2.347,13.032,13.032,0,0,1-8.921,0,10.047,10.047,0,0,1-3.662-2.347,11.249,11.249,0,0,1-2.481-3.884,14.443,14.443,0,0,1-.926-5.38,14.25,14.25,0,0,1,.926-5.356,11.286,11.286,0,0,1,2.514-3.889,10.462,10.462,0,0,1,3.7-2.366,12.787,12.787,0,0,1,8.833,0,10.074,10.074,0,0,1,3.634,2.366,11.574,11.574,0,0,1,2.481,3.889,14.248,14.248,0,0,1,.935,5.356Zm-18.518,0a12.125,12.125,0,0,0,.463,3.546,7.733,7.733,0,0,0,1.389,2.7,6.3,6.3,0,0,0,2.208,1.731,6.805,6.805,0,0,0,2.949.616,6.69,6.69,0,0,0,2.907-.616,6.269,6.269,0,0,0,2.213-1.731,7.81,7.81,0,0,0,1.389-2.7,12.282,12.282,0,0,0,.463-3.546,12.25,12.25,0,0,0-.463-3.542,7.792,7.792,0,0,0-1.389-2.708,6.259,6.259,0,0,0-2.213-1.727,6.69,6.69,0,0,0-2.907-.62,6.806,6.806,0,0,0-2.949.62A6.176,6.176,0,0,0,554,18.557a7.94,7.94,0,0,0-1.389,2.7,11.945,11.945,0,0,0-.472,3.528Z" transform="translate(-294.1 -6.654)"/><path class="a" d="M612.689,13.06q5.139,0,7.87,1.884a6.489,6.489,0,0,1,2.722,5.75q0,4.833-4.759,6.546c.431.523.926,1.162,1.472,1.917s1.107,1.569,1.676,2.449,1.093,1.8,1.634,2.722a29.142,29.142,0,0,1,1.389,2.722h-4.81q-.653-1.231-1.389-2.481t-1.523-2.431c-.514-.787-1.023-1.532-1.523-2.227s-.972-1.319-1.389-1.852c-.319,0-.6.032-.824.032h-2.741v8.94H606.18V13.643a22.57,22.57,0,0,1,3.357-.463C610.694,13.1,611.754,13.06,612.689,13.06Zm.31,3.731c-.926,0-1.759.037-2.537.1v7.676h1.884a20.259,20.259,0,0,0,2.778-.171,5.778,5.778,0,0,0,2-.62,2.981,2.981,0,0,0,1.218-1.2,3.972,3.972,0,0,0,.412-1.917,3.81,3.81,0,0,0-.412-1.852,3.028,3.028,0,0,0-1.181-1.2,5.592,5.592,0,0,0-1.852-.634A13.426,13.426,0,0,0,613,16.791Z" transform="translate(-325.541 -7.014)"/><path class="a" d="M92,99.1c.8-1.023,1.5-2,2.116-2.931C93.486,97.091,92.787,98.077,92,99.1Z" transform="translate(-49.407 -51.647)"/><path class="a" d="M76.584,56.81v.028H53.14V91.62A43.59,43.59,0,0,0,71.131,77.963c-.574.727-1.222,1.5-1.931,2.315v-.032L68.737,78.9a2.444,2.444,0,0,0-4.019-.926l-1.056,1.051a.463.463,0,0,1-.583.042l-2.167-1.6a.463.463,0,0,1-.139-.551l.616-1.292a2.435,2.435,0,0,0-2.19-3.491H57.668a.463.463,0,0,1-.463-.38l-.4-2.662a.463.463,0,0,1,.3-.491l1.347-.463a2.431,2.431,0,0,0,.926-4.014l-1.051-1.06a.463.463,0,0,1-.028-.611l1.593-2.162a.463.463,0,0,1,.56-.139l1.657.8a2.486,2.486,0,0,0,.824.227,8.986,8.986,0,0,0-1.25,6.065c.773,5.144,5.847,8.639,11.306,7.81a1.484,1.484,0,0,0,.25-.042,39.287,39.287,0,0,0,3.347-6.019V56.81Z" transform="translate(-28.538 -30.509)"/><path class="a" d="M1.616,28.55H0V40.541H4.25c-.167-3.958-.431-9.259-.671-10.222C3.185,28.758,2.338,28.55,1.616,28.55Z" transform="translate(0 -15.332)"/><path class="a" d="M0,0V9.782H3.579s1.44-.13,1.44-1.245S4.894,4.833,6.81,4.75h.167c1.912.088,1.792,2.708,1.792,3.787s1.44,1.245,1.44,1.245H21.782a1.347,1.347,0,0,1-1.306,1.111c-1.116,0-1.389-.287-2.551,1.153a2.782,2.782,0,0,1-2.546,1.171H12.139c-.718,0-1.569.2-1.958,1.769-.213.958-.458,6.264-.648,10.222H23.444V0Z"/><path class="a" d="M86.389,44.049l-.819-.2v2.315C87.051,45.623,88.653,44.619,86.389,44.049Z" transform="translate(-45.954 -23.549)"/><path class="a" d="M53.14,0V25.208H76.584V0ZM68.154,15.81V18.4c2.269.588,4.167,1.356,4.167,2.574,0,1.389-2.213,2.245-4.167,2.778v1.431h-1.7v-.977c-.421.106-.769.194-.986.278a8.023,8.023,0,0,0-1.44.713H61.871a5.991,5.991,0,0,1,1.5-1.218,6.727,6.727,0,0,1,1.782-.639l1.306-.25V19.852c-3.241-.843-7.681-2.213-9.519-4.481a6.722,6.722,0,0,1-.25-8.426c1.593-1.917,5.667-3.111,8.8-1.6s3.671,3.986,2.954,4.546a1.528,1.528,0,0,1-1.968-.241C65.547,8.7,64.691,6.875,61.742,7.1s-3.514,2.074-3.671,3.912a6.229,6.229,0,0,0,4.523,6.116c1.079.282,2.468.546,3.856.852V15.773c-5.884-.431-6.171-4.1-6.171-4.1H74.959S74.654,15.6,68.154,15.81Z" transform="translate(-28.538)"/><path class="a" d="M2.646,85.727h.046l4.019-.463a5.5,5.5,0,0,1,2.111.162.384.384,0,0,0,.463-.273.375.375,0,0,0-.269-.463,6.292,6.292,0,0,0-2.407-.181l-4,.449a.38.38,0,0,0-.338.426A.384.384,0,0,0,2.646,85.727Z" transform="translate(-1.215 -45.361)"/><path class="a" d="M20.983,81.287a.384.384,0,0,0,.463.273,5.606,5.606,0,0,1,2.111-.157l4.019.463h.051a.38.38,0,0,0,.38-.338.384.384,0,0,0-.338-.426l-4.019-.463a6.393,6.393,0,0,0-2.407.176A.384.384,0,0,0,20.983,81.287Z" transform="translate(-11.261 -43.283)"/><path class="a" d="M.063,56.838V56.81h0v7.9H.082l5.352-.639a6.37,6.37,0,0,1,3.486.583,6.356,6.356,0,0,1,3.481-.583l5.356.634a.38.38,0,0,1,.338.384v.875h.926a.384.384,0,0,1,.389.38v12.63a.384.384,0,0,1-.389.384H6.674c-.222-.259-.435-.519-.644-.773h12.6V66.731h-.556V77.342a.389.389,0,0,1-.13.287.407.407,0,0,1-.259.1h-.042l-5.352-.634a5.556,5.556,0,0,0-3.218.593.366.366,0,0,1-.352,0,5.556,5.556,0,0,0-3.241-.593l-.6.074c-.769-1.028-1.44-2.014-2.019-2.921l2.616-.3a5.491,5.491,0,0,1,2.111.153.386.386,0,1,0,.2-.745,6.38,6.38,0,0,0-2.407-.176l-2.977.347c-.194-.324-.384-.63-.556-.926l3.662-.421a5.588,5.588,0,0,1,2.111.162.384.384,0,0,0,.463-.273.38.38,0,0,0-.269-.463,6.384,6.384,0,0,0-2.407-.181l-3.944.463A31.662,31.662,0,0,1,.04,69.014a42.662,42.662,0,0,0,5.486,8.949A43.609,43.609,0,0,0,23.5,91.611V56.838Z" transform="translate(-0.021 -30.509)"/><path class="a" d="M2.662,81.888h.046l4.019-.463a5.588,5.588,0,0,1,2.111.157.386.386,0,1,0,.2-.745,6.481,6.481,0,0,0-2.407-.176l-4.014.463a.384.384,0,0,0,.042.764Z" transform="translate(-1.232 -43.295)"/><path class="a" d="M2.646,78.074h.046l4.019-.463a5.588,5.588,0,0,1,2.111.157.386.386,0,0,0,.2-.745,6.287,6.287,0,0,0-2.407-.176L2.6,77.306a.38.38,0,0,0-.338.426.389.389,0,0,0,.38.343Z" transform="translate(-1.215 -41.246)"/><path class="a" d="M20.985,92.763a.389.389,0,0,0,.463.273,5.421,5.421,0,0,1,2.111-.153l4.019.463h.051a.384.384,0,0,0,.042-.764l-4.019-.463a6.394,6.394,0,0,0-2.407.176.384.384,0,0,0-.259.468Z" transform="translate(-11.262 -49.448)"/><path class="a" d="M20.983,88.939a.389.389,0,0,0,.463.273,5.519,5.519,0,0,1,2.1-.153l4.019.463h.051a.385.385,0,1,0,.042-.769l-4.019-.463a6.482,6.482,0,0,0-2.407.176A.389.389,0,0,0,20.983,88.939Z" transform="translate(-11.261 -47.393)"/><path class="a" d="M21.431,77.734a5.426,5.426,0,0,1,2.111-.157l4.019.463h.051a.389.389,0,0,0,.38-.343.384.384,0,0,0-.338-.426l-4.019-.463a6.3,6.3,0,0,0-2.407.176.389.389,0,1,0,.2.75Z" transform="translate(-11.246 -41.224)"/><path class="a" d="M20.981,85.1a.394.394,0,0,0,.463.273,5.519,5.519,0,0,1,2.111-.162l4.019.463h.051a.385.385,0,1,0,.042-.769l-4.019-.463a6.213,6.213,0,0,0-2.407.181.38.38,0,0,0-.259.477Z" transform="translate(-11.258 -45.327)"/></svg>