<svg xmlns="http://www.w3.org/2000/svg" width="64" height="64" viewBox="0 0 64 64"><defs><style>.a{fill:#cc0352;}</style></defs><g transform="translate(0 0)"><path class="a" d="M62.934,0H1.067A1.066,1.066,0,0,0,0,1.066H0V22.4H2.133V2.133H61.867V25.6H24.533v2.133h38.4A1.066,1.066,0,0,0,64,26.667h0V1.067A1.066,1.066,0,0,0,62.934,0Z" transform="translate(0 0)"/></g><g transform="translate(34.783 5.565)"><g transform="translate(0 0)"><rect class="a" width="22" height="1" transform="translate(0.217 0.435)"/></g></g><g transform="translate(38.956 11.131)"><g transform="translate(0 0)"><rect class="a" width="21" height="3" transform="translate(0.044 -0.131)"/></g></g><g transform="translate(34.783 18.087)"><g transform="translate(0 0)"><rect class="a" width="21" height="3" transform="translate(0.217 -0.087)"/></g></g><g transform="translate(0 4.267)"><path class="a" d="M34.048,36.93a3.442,3.442,0,0,0-4.5-1.856l-.089.039L20.809,39.6a5.274,5.274,0,0,0,.524-2.266,5.333,5.333,0,1,0-9.573,3.2h-.044a7.32,7.32,0,0,0-6.8,4.735L2.069,55.083a3.416,3.416,0,1,0,6.415,2.35L9.6,53.883V69.321a5.317,5.317,0,0,0-6.922,8.048A4.914,4.914,0,0,0,0,81.728v8.939a1.066,1.066,0,0,0,1.066,1.067H11.733A1.066,1.066,0,0,0,12.8,90.667h0V81.728a4.9,4.9,0,0,0-1.9-3.861H18.97a4.9,4.9,0,0,0-1.9,3.861v8.939a1.066,1.066,0,0,0,1.066,1.067H28.8a1.066,1.066,0,0,0,1.067-1.066h0V81.728a4.914,4.914,0,0,0-2.678-4.359A5.329,5.329,0,0,0,22.4,68.335V46.515l9.792-5.084A3.442,3.442,0,0,0,34.048,36.93ZM16,34.133a3.2,3.2,0,1,1-3.2,3.2A3.2,3.2,0,0,1,16,34.133ZM6.4,70.36a3.2,3.2,0,1,1-3.2,3.2A3.2,3.2,0,0,1,6.4,70.36ZM10.667,89.6H2.133V81.728a2.8,2.8,0,0,1,2.8-2.795H7.871a2.8,2.8,0,0,1,2.8,2.795Zm17.067-7.872V89.6H19.2V81.728A2.8,2.8,0,0,1,22,78.933h2.943A2.8,2.8,0,0,1,27.733,81.728ZM23.467,70.36a3.2,3.2,0,1,1-3.2,3.2A3.2,3.2,0,0,1,23.467,70.36ZM32.1,38.709a1.372,1.372,0,0,1-.805.79L20.842,44.92a1.067,1.067,0,0,0-.576.947V69.321a5.261,5.261,0,0,0-1.66,6.412h-1.54V57.6H14.933V75.733H11.26a5.284,5.284,0,0,0,.47-2.133h0V46.933a1.067,1.067,0,0,0-2.084-.32L6.464,56.749a1.283,1.283,0,0,1-1.779.709,1.309,1.309,0,0,1-.6-1.694L6.936,45.95a5.153,5.153,0,0,1,4.78-3.283h7.553a1.062,1.062,0,0,0,.491-.12l10.6-5.5a1.313,1.313,0,0,1,1.679.622A1.3,1.3,0,0,1,32.1,38.709Z" transform="translate(0 -32)"/></g><g transform="translate(34.133 40.482)"><path class="a" d="M266.122,312.772a5.333,5.333,0,1,0-7.542-.1l.1.1A4.914,4.914,0,0,0,256,317.131v8.939a1.067,1.067,0,0,0,1.066,1.067h10.667a1.067,1.067,0,0,0,1.067-1.066h0v-8.939A4.914,4.914,0,0,0,266.122,312.772Zm-3.722-7.009a3.2,3.2,0,1,1-3.2,3.2A3.2,3.2,0,0,1,262.4,305.763ZM266.667,325h-8.533v-7.872a2.8,2.8,0,0,1,2.8-2.795h2.943a2.8,2.8,0,0,1,2.8,2.795Z" transform="translate(-256 -303.618)"/></g><g transform="translate(51.2 40.482)"><path class="a" d="M394.122,312.772a5.333,5.333,0,1,0-7.542-.1l.1.1A4.914,4.914,0,0,0,384,317.131v8.939a1.066,1.066,0,0,0,1.066,1.067h10.667a1.066,1.066,0,0,0,1.067-1.066h0v-8.939A4.914,4.914,0,0,0,394.122,312.772Zm-3.722-7.009a3.2,3.2,0,1,1-3.2,3.2A3.2,3.2,0,0,1,390.4,305.763ZM394.667,325h-8.533v-7.872a2.8,2.8,0,0,1,2.8-2.795h2.943a2.8,2.8,0,0,1,2.8,2.795Z" transform="translate(-384 -303.618)"/></g></svg>