<svg xmlns="http://www.w3.org/2000/svg" width="55" height="55" viewBox="0 0 55 55"><defs><style>.a{fill:#cc0352;}</style></defs><g transform="translate(0 2)"><g transform="translate(13.059 6.91)"><path class="a" d="M161.936,64.936a2.072,2.072,0,0,0-2.931,0l-24.867,24.8-8.972-9.745a2.073,2.073,0,0,0-3.05,2.808l10.433,11.331a2.07,2.07,0,0,0,1.481.668h.044a2.075,2.075,0,0,0,1.463-.6l26.395-26.325A2.073,2.073,0,0,0,161.936,64.936Z" transform="translate(-121.568 -64.327)"/></g><g transform="translate(0 -2)"><path class="a" d="M52.927,25.427A2.073,2.073,0,0,0,50.854,27.5,23.354,23.354,0,1,1,27.5,4.146,2.073,2.073,0,1,0,27.5,0,27.5,27.5,0,1,0,55,27.5,2.073,2.073,0,0,0,52.927,25.427Z"/></g></g></svg>